<?xml version="1.0" encoding="utf-8"?>
<!-- Generator: Adobe Illustrator 22.1.0, SVG Export Plug-In . SVG Version: 6.00 Build 0)  -->
<svg version="1.1" id="Слой_3" xmlns="http://www.w3.org/2000/svg" xmlns:xlink="http://www.w3.org/1999/xlink" x="0px" y="0px"
	 viewBox="0 0 100 100" style="enable-background:new 0 0 100 100;" xml:space="preserve">
<style type="text/css">
	.st0{fill:none;stroke:#FFFFFF;stroke-width:5;stroke-miterlimit:10;}
	.st1{fill:#FFFFFF;}
</style>
<path class="st0" d="M28.2,27.4c0,0,51.1-0.1,53.9-0.1s2.1,3.3,2.1,3.3s-4.1,21.3-4.4,23.2c-0.3,1.9-2.4,1.9-2.4,1.9
	s-34.6,4.4-36.9,4.7c-1.2,0.1-2-0.5-2.5-1.1c-0.4-0.5-0.5-1.1-0.5-1.1S26.3,21,25.6,18.8c-0.7-2.3-1.5-2.1-1.5-2.1h-9.6
	c0.3,0-0.4,0,0.3,0"/>
<path class="st0" d="M38.4,59.8l-2.1,4.2c0,0-1.8,3.9,2.1,5.3s41.7-1.6,41.7-1.6l-0.4,0c0,0,0.6,0-0.3,0"/>
<circle class="st1" cx="73.5" cy="80.3" r="6.2"/>
<circle class="st1" cx="39.2" cy="80.3" r="6.3"/>
</svg>
