<?xml version="1.0" encoding="utf-8"?>
<!-- Generator: Adobe Illustrator 22.1.0, SVG Export Plug-In . SVG Version: 6.00 Build 0)  -->
<svg version="1.1" id="Слой_3" xmlns="http://www.w3.org/2000/svg" xmlns:xlink="http://www.w3.org/1999/xlink" x="0px" y="0px"
	 viewBox="0 0 100 100" style="enable-background:new 0 0 100 100;" xml:space="preserve">
<style type="text/css">
	.st0{fill:none;stroke:#FFFFFF;stroke-width:5;stroke-miterlimit:10;}
	.st1{fill:#FFFFFF;}
</style>
<path class="st0" d="M86.4,27.5v44c0,1.1-0.9,2-2,2H30.6v-29c0-1.1-0.9-2-2-2h-6v-15c0-1.1,0.9-2,2-2h59.9
	C85.5,25.5,86.4,26.4,86.4,27.5z"/>
<rect x="51" y="72.1" class="st1" width="6" height="8.3"/>
<path class="st1" d="M66,82H43c-1.1,0-2-0.9-2-2v-1c0-1.1,0.9-2,2-2H66c1.1,0,2,0.9,2,2v1C68,81.1,67.1,82,66,82z"/>
<path class="st0" d="M30.6,73.5v4.1c0,1.1-0.9,2-2,2H12.6c-1.1,0-2-0.9-2-2l0-33c0-1.1,0.9-2,2-2h9.9"/>
<circle class="st1" cx="20.5" cy="49.5" r="2.5"/>
</svg>
