<?xml version="1.0" encoding="utf-8"?>
<!-- Generator: Adobe Illustrator 22.1.0, SVG Export Plug-In . SVG Version: 6.00 Build 0)  -->
<svg version="1.1" id="Слой_2" xmlns="http://www.w3.org/2000/svg" xmlns:xlink="http://www.w3.org/1999/xlink" x="0px" y="0px"
	 viewBox="0 0 100 100" style="enable-background:new 0 0 100 100;" xml:space="preserve">
<style type="text/css">
	.st0{fill:none;stroke:#FFFFFF;stroke-width:5;stroke-miterlimit:10;}
	.st1{fill:none;stroke:#FFFFFF;stroke-width:4;stroke-miterlimit:10;}
</style>
<path class="st0" d="M83.6,74.4H16.5c-1.1,0-2-0.9-2-2v-46c0-1.1,0.9-2,2-2h67.1c1.1,0,2,0.9,2,2v46C85.6,73.5,84.7,74.4,83.6,74.4z
	"/>
<path class="st1" d="M89.1,82.8h-78c-0.6,0-1-0.4-1-1l0,0c0-0.6,0.4-1,1-1h78c0.6,0,1,0.4,1,1l0,0C90.1,82.4,89.7,82.8,89.1,82.8z"
	/>
</svg>
